{"title":"Shakira - She Wolf [1920x1080p]","uid":5915095,"size":195990376,"categoryP":"video","categoryS":"music_videos","magnet":"?xt=urn:btih:a8fea1522907d7dd245a1e9fd33ddabd46dbb14b&amp;dn=Shakira+-+She+Wolf+%5B1920x1080p%5D&amp;tr=udp%3A%2F%2Ftracker.openbittorrent.com%3A80&amp;tr=udp%3A%2F%2Fopen.demonii.com%3A1337&amp;tr=udp%3A%2F%2Ftracker.coppersurfer.tk%3A6969&amp;tr=udp%3A%2F%2Fexodus.desync.com%3A6969","seeders":1,"leechers":0,"uploader":"ankurgow3","files":1,"time":1288188884,"description":"Video\nID                               : 326 (0x146)\nMenu ID                          : 1 (0x1)\nFormat                           : AVC\nFormat/Info                      : Advanced Video Codec\nFormat profile                   : &lt;a class=&quot;__cf_email__&quot; href=&quot;/cdn-cgi/l/email-protection&quot; data-cfemail=&quot;e7aa868e89a7abd3c9d7&quot;&gt;[email&amp;#160;protected]&lt;/a&gt;&lt;script cf-hash='f9e31' type=&quot;text/javascript&quot;&gt;\n/* &lt;![CDATA[ */!function(){try{var t=&quot;currentScript&quot;in document?document.currentScript:function(){for(var t=document.getElementsByTagName(&quot;script&quot;),e=t.length;e--;)if(t[e].getAttribute(&quot;cf-hash&quot;))return t[e]}();if(t&amp;&amp;t.previousSibling){var e,r,n,i,c=t.previousSibling,a=c.getAttribute(&quot;data-cfemail&quot;);if(a){for(e=&quot;&quot;,r=parseInt(a.substr(0,2),16),n=2;a.length-n;n+=2)i=parseInt(a.substr(n,2),16)^r,e+=String.fromCharCode(i);e=document.createTextNode(e),c.parentNode.replaceChild(e,c)}}}catch(u){}}();/* ]]&gt; */&lt;/script&gt;\nFormat settings, CABAC           : Yes\nFormat settings, ReFrames        : 4 frames\nCodec ID                         : 27\nDuration                         : 3mn 47s\nBit rate                         : 6 166 Kbps\nWidth                            : 1 920 pixels\nHeight                           : 1 080 pixels\nDisplay aspect ratio             : 16:9\nFrame rate                       : 25.000 fps\nColor space                      : YUV\nChroma subsampling               : 4:2:0\nBit depth                        : 8 bits\nScan type                        : Interlaced\nScan order                       : Top Field First\nBits/(Pixel*Frame)               : 0.119\nStream size                      : 167 MiB (89%)\nLanguage                         : English\nColor primaries                  : BT.709-5, BT.1361, IEC 61966-2-4, SMPTE RP177\nTransfer characteristics         : BT.709-5, BT.1361\nMatrix coefficients              : BT.709-5, BT.1361, IEC 61966-2-4 709, SMPTE RP177\n\nAudio\nID                               : 406 (0x196)\nMenu ID                          : 1 (0x1)\nFormat                           : AC-3\nFormat/Info                      : Audio Coding 3\nMode extension                   : CM (complete main)\nCodec ID                         : 129\nDuration                         : 3mn 47s\nBit rate mode                    : Constant\nBit rate                         : 384 Kbps\nChannel(s)                       : 2 channels\nChannel positions                : Front: L R\nSampling rate                    : 48.0 KHz\nBit depth                        : 16 bits\nVideo delay                      : 117ms\nStream size                      : 10.4 MiB (6%)\nLanguage                         : English\n\nScreens:\n\n&lt;img&gt;http://lh3.ggpht.com/_-wgtl62Wh6c/TJ71LgSyzMI/AAAAAAAAAMU/RStYCQFO4Rk/s800/vlcsnap-2010-09-26-12h47m02s216.png&lt;/img&gt;\n\n&lt;img&gt;http://lh5.ggpht.com/_-wgtl62Wh6c/TJ71MC-my9I/AAAAAAAAAMU/tbG3Ztc447w/s800/vlcsnap-2010-09-26-12h47m08s104.png&lt;/img&gt;","torrent":{"xt":"urn:btih:a8fea1522907d7dd245a1e9fd33ddabd46dbb14b","amp;dn":"Shakira+-+She+Wolf+%5B1920x1080p%5D","amp;tr":["udp%3A%2F%2Ftracker.openbittorrent.com%3A80","udp%3A%2F%2Fopen.demonii.com%3A1337","udp%3A%2F%2Ftracker.coppersurfer.tk%3A6969","udp%3A%2F%2Fexodus.desync.com%3A6969"],"infoHash":"a8fea1522907d7dd245a1e9fd33ddabd46dbb14b","infoHashBuffer":{"type":"Buffer","data":[168,254,161,82,41,7,215,221,36,90,30,159,211,61,218,189,70,219,177,75]},"announce":[],"urlList":[]}}